# xmcd
#
# Track frame offsets:
#	150
#	20757
#	44047
#	71097
#	90089
#	113122
#	132913
#	154791
#	177679
#	201029
#
# Disc length: 2961 seconds
#
# Revision: 1
# Processed by: cddbd v1.5.2PL0 Copyright (c) Steve Scherf et al.
# Submitted via: EZCDAudioConverter 8.0.2.1
#
DISCID=8b0b8f0a
DTITLE=Duy Khánh - The Bets Of. Xin Anh Giữ Trọn Tình Quê [CD3)
DYEAR=2000
DGENRE=Miscellaneous
TTITLE0=Đi từ ruộng đồng bao la
TTITLE1=CHiến sĩ vô danh
TTITLE2=Anh đi chiến dịch
TTITLE3=Chúng mình ba đứa
TTITLE4=Sương trắng miền quê ngoại
TTITLE5=Ly cà phê cuối cùng
TTITLE6=Đa tạ
TTITLE7=Trăng tàn trên hè phố
TTITLE8=Nén hương yêu
TTITLE9=Ngày về
EXTD=
EXTT0=
EXTT1=
EXTT2=
EXTT3=
EXTT4=
EXTT5=
EXTT6=
EXTT7=
EXTT8=
EXTT9=
PLAYORDER=
